<svg width="44" height="43" viewBox="0 0 44 43" fill="none" xmlns="http://www.w3.org/2000/svg">
<path d="M1.96295 22.2193L7.0953 16.8471M41.963 22.2193L36.8306 16.8471M36.8306 16.8471L22.686 2.04152C22.2921 1.62923 21.6338 1.62923 21.2399 2.04152L7.0953 16.8471M36.8306 16.8471V40.2847C36.8306 40.837 36.3829 41.2847 35.8306 41.2847H27.3489C26.7966 41.2847 26.3489 40.837 26.3489 40.2847V28.0791C26.3489 27.5268 25.9012 27.0791 25.3489 27.0791H18.7524C18.2001 27.0791 17.7524 27.5268 17.7524 28.0791V40.2847C17.7524 40.837 17.3047 41.2847 16.7524 41.2847H8.0953C7.54301 41.2847 7.0953 40.837 7.0953 40.2847V16.8471" stroke="#002F6C" stroke-width="3"/>
</svg>
