<svg width="44" height="43" viewBox="0 0 44 43" fill="none" xmlns="http://www.w3.org/2000/svg">
<path d="M36.8694 16.6871L22.7248 1.88155C22.331 1.46926 21.6726 1.46926 21.2787 1.88155L7.13412 16.6871V40.1247C7.13412 40.677 7.58183 41.1247 8.13412 41.1247H16.7912C17.3435 41.1247 17.7912 40.677 17.7912 40.1247V27.9191C17.7912 27.3668 18.239 26.9191 18.7912 26.9191H25.3877C25.94 26.9191 26.3877 27.3668 26.3877 27.9191V40.1247C26.3877 40.677 26.8354 41.1247 27.3877 41.1247H35.8694C36.4217 41.1247 36.8694 40.677 36.8694 40.1247V16.6871Z" fill="white"/>
<path d="M2.00177 22.0593L7.13412 16.6871M42.0018 22.0593L36.8694 16.6871M36.8694 16.6871L22.7248 1.88155C22.331 1.46926 21.6726 1.46926 21.2787 1.88155L7.13412 16.6871M36.8694 16.6871V40.1247C36.8694 40.677 36.4217 41.1247 35.8694 41.1247H27.3877C26.8355 41.1247 26.3877 40.677 26.3877 40.1247V27.9191C26.3877 27.3668 25.94 26.9191 25.3877 26.9191H18.7912C18.239 26.9191 17.7912 27.3668 17.7912 27.9191V40.1247C17.7912 40.677 17.3435 41.1247 16.7912 41.1247H8.13412C7.58183 41.1247 7.13412 40.677 7.13412 40.1247V16.6871" stroke="#002F6C" stroke-width="3"/>
</svg>
