<svg width="41" height="24" viewBox="0 0 41 24" fill="none" xmlns="http://www.w3.org/2000/svg">
<path d="M4.54118 18.683H1.79704V8.31189H4.34587V9.7865C4.78206 9.08988 5.17269 8.6309 5.51774 8.40955C5.8693 8.18819 6.26644 8.07751 6.70915 8.07751C7.33415 8.07751 7.93636 8.25004 8.51579 8.59509L7.66618 10.9877C7.20394 10.6882 6.77425 10.5385 6.37712 10.5385C5.993 10.5385 5.66748 10.6459 5.40055 10.8607C5.13363 11.0691 4.92204 11.4499 4.76579 12.0033C4.61605 12.5567 4.54118 13.7155 4.54118 15.4799V18.683ZM16.5334 18.683V17.1302C16.1558 17.6836 15.6577 18.1198 15.0392 18.4388C14.4272 18.7579 13.7795 18.9174 13.0959 18.9174C12.3993 18.9174 11.7743 18.7644 11.2209 18.4584C10.6675 18.1524 10.2671 17.7227 10.0197 17.1693C9.7723 16.6159 9.6486 15.851 9.6486 14.8744V8.31189H12.3927V13.0775C12.3927 14.5358 12.4416 15.431 12.5392 15.7631C12.6434 16.0886 12.8289 16.349 13.0959 16.5443C13.3628 16.7331 13.7013 16.8275 14.1115 16.8275C14.5802 16.8275 15.0002 16.7006 15.3713 16.4467C15.7424 16.1862 15.9963 15.8672 16.133 15.4896C16.2697 15.1055 16.3381 14.1713 16.3381 12.6869V8.31189H19.0822V18.683H16.5334Z" fill="#002F6C"/>
<path d="M25.8062 12.5112L32.2651 17.9405C32.6583 18.271 33.2379 18.2499 33.606 17.8917L39.134 12.5112" stroke="#002F6C" stroke-width="3"/>
</svg>
