<svg width="14" height="21" viewBox="0 0 14 21" fill="none" xmlns="http://www.w3.org/2000/svg">
<path d="M11.6479 18.0614C11.6479 18.1784 11.5069 18.5947 10.5517 19.0405C9.6777 19.4483 8.39999 19.7276 6.93479 19.7276C5.46959 19.7276 4.19188 19.4483 3.3179 19.0405C2.36271 18.5947 2.22168 18.1784 2.22168 18.0614C2.22168 17.9445 2.36271 17.5281 3.3179 17.0824C4.19188 16.6745 5.46959 16.3953 6.93479 16.3953C8.39999 16.3953 9.6777 16.6745 10.5517 17.0824C11.5069 17.5281 11.6479 17.9445 11.6479 18.0614Z" stroke="#002F6C" stroke-width="2"/>
<path d="M6.97656 18.7847L2.5348 13.5194H11.4183L6.97656 18.7847Z" fill="white"/>
<circle cx="6.98058" cy="7.06157" r="1.85656" stroke="#002F6C" stroke-width="2"/>
<path d="M12.0288 6.82152C12.0288 7.75906 11.6837 9.11032 10.7473 10.9488C9.93369 12.5463 8.69947 14.4617 6.9425 16.7229C5.24164 14.5106 4.00994 12.726 3.17963 11.1911C2.23232 9.43987 1.84082 8.07327 1.84082 6.82152C1.84082 4.00819 4.12147 1.72754 6.9348 1.72754C9.74813 1.72754 12.0288 4.00819 12.0288 6.82152Z" stroke="#002F6C" stroke-width="2"/>
</svg>
