<svg width="890" height="193" viewBox="0 0 890 193" fill="none" xmlns="http://www.w3.org/2000/svg">
<path d="M74.7314 127.942C71.6608 127.485 70.0443 127.806 67.4992 128.29C64.9541 128.774 62.4619 129.813 59.498 131.068C70.3797 133.827 76.8243 134.187 87.6764 132.697C84.5253 131.136 83.1493 130.29 78.0132 128.58L74.7314 127.942Z" fill="#FFA74F" stroke="#FFA74F" stroke-width="0.148589"/>
<path d="M41.6136 123.786L45.1299 130.126C36.4523 136.507 30.902 138.665 20.2425 140.94L23.9295 135.855C17.8577 139.942 14.0392 141.699 4.06055 140.747C6.12229 137.15 7.38109 135.187 10.2739 132.025L13.6536 128.227L20.4473 128.388L28.948 127.519L41.6136 123.786Z" fill="#F9E10B" stroke="#F9E10B" stroke-width="0.148589"/>
<path d="M126.287 63.3364H103.737C105.372 68.7461 106.065 71.5322 106.517 75.6398C117.123 74.2864 121.08 71.1484 126.287 63.3364Z" fill="#FFA74F" stroke="black" stroke-width="0.148589"/>
<path d="M140.323 63.1913C132.664 43.5144 106.665 42.1798 105.648 41.549C104.632 40.9182 100.468 53.8895 103.741 63.1913H140.323Z" fill="#FFA74F" stroke="black" stroke-width="0.148589"/>
<path d="M64.609 80.6941L66.8808 76.8049L88.5574 78.2175L105.539 88.0112C105.471 90.3684 105.384 92.2611 105.198 94.0257C104.95 96.3774 104.527 98.5016 103.741 101.195C102.967 103.543 102.318 105.426 101.605 107.183C100.671 109.482 99.6273 111.566 98.0472 114.19C95.078 117.625 93.2054 119.444 89.4564 122.477C85.6898 125.101 83.1205 126.353 78.1686 128.41C75.4297 127.672 73.7388 127.396 69.8775 127.657C66.7643 127.907 64.5137 128.681 59.7884 130.953C55.1778 131.497 51.9483 131.282 45.2041 130.105L58.8449 112.127C60.8889 110.185 62.4294 108.869 64.0275 107.183L69.8092 96.0122L69.3976 90.2243L67.7798 84.8094L64.609 80.6941Z" fill="white"/>
<path d="M70.8373 94.0257L64.0275 107.183M64.0275 107.183C62.4294 108.869 60.8889 110.185 58.8449 112.127L45.2041 130.105C51.9483 131.282 55.1778 131.497 59.7884 130.953C64.5137 128.681 66.7643 127.907 69.8775 127.657C73.7388 127.396 75.4297 127.672 78.1686 128.41C83.1205 126.353 85.6898 125.101 89.4564 122.477C93.2054 119.444 95.078 117.625 98.0472 114.19C99.6273 111.566 100.671 109.482 101.605 107.183M64.0275 107.183C64.6726 106.503 65.3271 105.762 66.0278 104.896L69.9297 97.7064L69.3976 90.2243L67.7798 84.8094L64.609 80.6941L66.8808 76.8049L88.5574 78.2175L105.539 88.0112C105.471 90.3684 105.384 92.2611 105.198 94.0257M101.605 107.183C102.318 105.426 102.967 103.543 103.741 101.195C104.527 98.5016 104.95 96.3774 105.198 94.0257M101.605 107.183L105.198 94.0257" stroke="black" stroke-width="0.148589"/>
<path d="M101.549 107.114H64.2167L58.608 112.442L45.375 130.09C50.8754 131.105 54.0256 131.268 59.7472 130.923C67.3265 127.506 71.3415 126.956 78.0631 128.509C81.913 127.287 83.909 126.391 87.0019 124.18L92.0848 120.517C97.7135 115.343 99.7348 112.407 101.549 107.114Z" fill="#D52B1E" stroke="#D52B1E" stroke-width="0.148589"/>
<path d="M70.6296 93.8611L63.8506 107.113H101.632C103.613 102.298 104.46 99.4377 105.195 93.8611H70.6296Z" fill="#0039A6" stroke="#0039A6" stroke-width="0.148589"/>
<path d="M65.4319 29.2183C76.9315 25.3794 81.9809 24.9466 92.183 28.4468C98.3043 31.3767 101.79 34.5054 105.619 41.5259C104.199 40.7631 100.8 54.011 103.568 63.2213C105.003 67.9947 105.959 70.676 106.434 75.5533C106.911 80.4379 105.536 88.1817 105.536 88.1817C95.4385 90.2297 91.3415 88.7644 88.6612 78.0654C83.4772 88.5066 72.4741 90.0187 66.8587 76.6952L65.0708 80.8059C59.5038 76.0135 47.7955 74.2195 46.3767 75.5533C44.9579 76.8872 45.045 59.296 46.7519 51.3459C48.4798 46.5658 49.8936 43.7224 53.2927 38.3287C56.9533 34.4294 59.9549 32.6481 65.4319 29.2183Z" fill="#008000" stroke="black" stroke-width="0.148589"/>
<path d="M94.4893 49.9321C94.4893 58.1675 88.1794 64.8364 80.4046 64.8364C72.6297 64.8364 66.3199 58.1675 66.3199 49.9321C66.3199 41.6967 72.6297 35.0278 80.4046 35.0278C88.1794 35.0278 94.4893 41.6967 94.4893 49.9321Z" fill="white" stroke="black" stroke-width="0.148589"/>
<path d="M91.5428 49.3882C91.5428 54.4543 87.6427 58.5547 82.8398 58.5547C78.0368 58.5547 74.1368 54.4543 74.1368 49.3882C74.1368 44.322 78.0368 40.2216 82.8398 40.2216C87.6427 40.2216 91.5428 44.322 91.5428 49.3882Z" fill="black" stroke="black" stroke-width="0.148589"/>
<path d="M88.9788 48.1199C88.9788 50.144 87.2653 51.7902 85.1449 51.7902C83.0246 51.7902 81.3111 50.144 81.3111 48.1199C81.3111 46.0958 83.0246 44.4495 85.1449 44.4495C87.2653 44.4495 88.9788 46.0958 88.9788 48.1199Z" fill="white" stroke="black" stroke-width="0.148589"/>
<path d="M46.1984 75.7148C53.0876 74.5081 61.4111 77.8467 65.0628 80.8845C67.1028 83.6201 68.0125 85.0019 69.2042 87.1867C70.2136 89.9786 70.523 91.4087 70.8023 93.8158C70.2838 97.5429 68.7281 100.035 66.3275 104.362C63.2342 108.47 61.2169 110.366 57.3777 113.402C50.9279 118.323 47.1344 120.896 39.4783 124.551C30.7907 127.469 25.7801 128.457 16.4647 128.468C10.2829 127.998 6.75671 127.56 0.323242 126.359C6.35344 119.564 9.73396 115.755 14.8665 108.279L24.3363 91.7753C27.5016 86.0197 29.6143 83.9789 33.6953 81.4359C38.4688 78.4245 41.223 77.2905 46.1984 75.7148Z" fill="white" stroke="#0039A6" stroke-width="0.148589"/>
<path d="M31.4082 126.933V82.9024C38.2564 77.9353 45.77 74.6054 46.4227 75.4617V120.836C41.2439 124.312 38.0173 125.286 31.4082 126.933Z" fill="#002F6C" stroke="#002F6C" stroke-width="0.148589"/>
<path d="M70.829 93.8367L23.4636 93.3063L15.9404 106.464C15.9404 106.464 60.3935 112.904 64.7579 106.464C69.1224 100.023 71.058 98.2379 70.829 93.8367Z" fill="#002F6C"/>
<path d="M58.3007 112.759L45.1341 130.139L41.5815 123.781C41.5815 123.781 52.4769 117.208 58.3007 112.759Z" fill="#F9E10B"/>
<path d="M65.326 3.03763C59.3755 -6.29652 90.202 18.8412 95.4303 29.885C89.2858 27.0086 86.0192 25.7286 77.9496 25.843C74.7873 26.3155 74.2742 26.3962 68.9021 28.0228H68.5583C67.603 28.2715 66.9316 28.4902 65.5551 28.9884C66.193 23.7724 66.3208 19.581 65.1973 13.3041C67.9602 17.6309 68.1715 21.7742 68.5583 28.0228H68.9021C69.3548 20.6125 67.3394 15.785 65.5551 7.32241C68.921 9.51204 71.9509 14.9925 77.8439 25.6517L77.9496 25.843C74.739 17.81 71.2765 12.3718 65.326 3.03763Z" fill="#F9E10B"/>
<path d="M77.9496 25.843C86.0192 25.7286 89.2858 27.0086 95.4303 29.885C90.202 18.8412 59.3755 -6.29652 65.326 3.03763C71.2765 12.3718 74.739 17.81 77.9496 25.843ZM77.9496 25.843C71.987 15.058 68.941 9.5251 65.5551 7.32241C67.3394 15.785 69.3548 20.6125 68.9021 28.0228M77.9496 25.843C74.7873 26.3155 74.2742 26.3962 68.9021 28.0228M68.9021 28.0228H68.5583M68.5583 28.0228C68.1715 21.7742 67.9602 17.6309 65.1973 13.3041C66.3208 19.581 66.193 23.7724 65.5551 28.9884C66.9316 28.4902 67.603 28.2715 68.5583 28.0228Z" stroke="#F9E10B" stroke-width="0.148589"/>
<path d="M177.244 36.209H204.002V42.2148H184.471V50.5156H194.139C196.808 50.5156 199.021 50.8411 200.779 51.4922C202.537 52.1432 204.035 53.3477 205.271 55.1055C206.525 56.8633 207.151 58.9222 207.151 61.2822C207.151 63.7074 206.525 65.7826 205.271 67.5078C204.018 69.2331 202.586 70.4131 200.975 71.0479C199.38 71.6826 197.101 72 194.139 72H177.244V36.209ZM184.471 65.9941H191.502C193.748 65.9941 195.327 65.8883 196.238 65.6768C197.15 65.4489 197.939 64.9443 198.606 64.1631C199.29 63.3818 199.632 62.4215 199.632 61.2822C199.632 59.6221 199.038 58.4176 197.85 57.6689C196.678 56.904 194.668 56.5215 191.819 56.5215H184.471V65.9941ZM212.938 46.0723H219.798V56.5459H225.267C225.625 53.2256 226.878 50.5563 229.026 48.5381C231.191 46.5036 234.08 45.4863 237.693 45.4863C241.339 45.4863 244.326 46.6663 246.653 49.0264C248.981 51.3864 250.145 54.7881 250.145 59.2314C250.145 61.8356 249.705 64.1143 248.826 66.0674C247.964 68.0205 246.637 69.5993 244.847 70.8037C243.056 71.9919 240.721 72.5859 237.84 72.5859C233.689 72.5859 230.597 71.4629 228.562 69.2168C226.528 66.9544 225.429 64.5456 225.267 61.9902H219.798V72H212.938V46.0723ZM237.596 50.833C235.691 50.833 234.3 51.4434 233.421 52.6641C232.558 53.8848 232.127 55.8298 232.127 58.499C232.127 61.917 232.591 64.2282 233.519 65.4326C234.463 66.6208 235.887 67.2148 237.791 67.2148C239.549 67.2148 240.867 66.5475 241.746 65.2129C242.625 63.862 243.064 61.8438 243.064 59.1582C243.064 55.8704 242.584 53.665 241.624 52.542C240.68 51.4027 239.337 50.833 237.596 50.833ZM255.516 46.0723H261.912V49.8809C262.742 48.5788 263.865 47.5208 265.281 46.707C266.697 45.8932 268.268 45.4863 269.993 45.4863C273.004 45.4863 275.56 46.6663 277.659 49.0264C279.759 51.3864 280.809 54.6742 280.809 58.8896C280.809 63.2191 279.751 66.5882 277.635 68.9971C275.519 71.3896 272.955 72.5859 269.944 72.5859C268.512 72.5859 267.21 72.3011 266.038 71.7314C264.882 71.1618 263.662 70.1852 262.376 68.8018V81.8633H255.516V46.0723ZM262.303 58.5967C262.303 61.5101 262.881 63.6667 264.036 65.0664C265.192 66.4499 266.6 67.1416 268.26 67.1416C269.855 67.1416 271.181 66.5068 272.239 65.2373C273.297 63.9515 273.826 61.8519 273.826 58.9385C273.826 56.2204 273.281 54.2021 272.19 52.8838C271.1 51.5654 269.749 50.9062 268.138 50.9062C266.461 50.9062 265.07 51.5573 263.963 52.8594C262.856 54.1452 262.303 56.0576 262.303 58.5967ZM284.69 58.6699C284.69 56.3913 285.252 54.1859 286.375 52.0537C287.498 49.9215 289.085 48.2939 291.136 47.1709C293.203 46.0479 295.506 45.4863 298.045 45.4863C301.967 45.4863 305.182 46.764 307.688 49.3193C310.195 51.8584 311.448 55.0729 311.448 58.9629C311.448 62.8854 310.179 66.1406 307.64 68.7285C305.117 71.3001 301.935 72.5859 298.094 72.5859C295.717 72.5859 293.447 72.0488 291.282 70.9746C289.134 69.9004 287.498 68.3298 286.375 66.2627C285.252 64.1794 284.69 61.6484 284.69 58.6699ZM291.722 59.0361C291.722 61.6077 292.332 63.5771 293.553 64.9443C294.773 66.3115 296.279 66.9951 298.069 66.9951C299.86 66.9951 301.357 66.3115 302.562 64.9443C303.782 63.5771 304.393 61.5915 304.393 58.9873C304.393 56.4482 303.782 54.4951 302.562 53.1279C301.357 51.7607 299.86 51.0771 298.069 51.0771C296.279 51.0771 294.773 51.7607 293.553 53.1279C292.332 54.4951 291.722 56.4645 291.722 59.0361ZM359.593 36.209H366.404V49.3682C367.234 48.0824 368.227 47.1221 369.383 46.4873C370.538 45.8363 371.857 45.5107 373.338 45.5107C376.121 45.5107 378.392 46.8617 380.149 49.5635C381.924 52.249 382.811 55.4635 382.811 59.207C382.811 62.9668 381.818 66.1406 379.832 68.7285C377.863 71.3001 375.527 72.5859 372.825 72.5859C371.604 72.5859 370.457 72.2848 369.383 71.6826C368.309 71.0641 367.316 70.1527 366.404 68.9482V81.8633H359.593V68.9482C358.6 70.1527 357.534 71.0641 356.395 71.6826C355.271 72.2848 354.075 72.5859 352.806 72.5859C350.006 72.5859 347.695 71.292 345.872 68.7041C344.049 66.1162 343.138 62.861 343.138 58.9385C343.138 55.0485 344.179 51.834 346.263 49.2949C348.346 46.7559 350.6 45.4863 353.025 45.4863C354.344 45.4863 355.548 45.7956 356.639 46.4141C357.729 47.0326 358.714 47.9603 359.593 49.1973V36.209ZM355.003 50.7354C353.733 50.7354 352.618 51.5003 351.658 53.0303C350.714 54.5439 350.242 56.5459 350.242 59.0361C350.242 61.5426 350.682 63.5527 351.561 65.0664C352.456 66.5801 353.562 67.3369 354.881 67.3369C356.215 67.3369 357.347 66.5801 358.274 65.0664C359.202 63.5527 359.666 61.4857 359.666 58.8652C359.666 56.0169 359.161 53.9499 358.152 52.6641C357.143 51.3783 356.093 50.7354 355.003 50.7354ZM371.043 50.7842C369.643 50.7842 368.504 51.6061 367.625 53.25C366.746 54.8776 366.307 56.9202 366.307 59.3779C366.307 61.8356 366.771 63.7887 367.698 65.2373C368.642 66.6696 369.757 67.3857 371.043 67.3857C372.329 67.3857 373.436 66.5719 374.363 64.9443C375.291 63.3167 375.755 61.3962 375.755 59.1826C375.755 56.8226 375.332 54.8369 374.485 53.2256C373.639 51.598 372.492 50.7842 371.043 50.7842ZM393.255 46.0723H399.847V62.3564L410.394 46.0723H417.132V72H410.54V55.4229L399.847 72H393.255V46.0723ZM428.919 46.0723H435.779V55.5693H445.594V46.0723H452.479V72H445.594V61.1113H435.779V72H428.919V46.0723ZM487.02 53.7383L480.257 54.959C480.029 53.6081 479.508 52.5908 478.694 51.9072C477.897 51.2236 476.855 50.8818 475.569 50.8818C473.86 50.8818 472.493 51.4759 471.468 52.6641C470.459 53.8359 469.954 55.8053 469.954 58.5723C469.954 61.6484 470.467 63.8213 471.492 65.0908C472.534 66.3604 473.925 66.9951 475.667 66.9951C476.969 66.9951 478.035 66.6289 478.865 65.8965C479.695 65.1478 480.281 63.8701 480.623 62.0635L487.361 63.2109C486.661 66.3034 485.319 68.639 483.333 70.2178C481.347 71.7965 478.686 72.5859 475.35 72.5859C471.557 72.5859 468.53 71.3896 466.268 68.9971C464.021 66.6045 462.898 63.2923 462.898 59.0605C462.898 54.7799 464.03 51.4515 466.292 49.0752C468.554 46.6826 471.614 45.4863 475.472 45.4863C478.629 45.4863 481.136 46.1699 482.991 47.5371C484.863 48.888 486.206 50.9551 487.02 53.7383ZM496.976 46.0723H503.812V56.668C504.951 56.5378 505.757 56.1878 506.229 55.6182C506.701 55.0485 507.27 53.8034 507.938 51.8828C508.816 49.3275 509.777 47.6917 510.818 46.9756C511.86 46.2594 513.227 45.9014 514.92 45.9014C515.441 45.9014 516.344 45.9421 517.63 46.0234L517.654 50.5645C515.848 50.5645 514.692 50.7354 514.188 51.0771C513.683 51.4352 513.138 52.5013 512.552 54.2754C511.754 56.668 510.607 58.141 509.109 58.6943C511.274 59.2965 513.105 61.1764 514.603 64.334C514.684 64.4967 514.773 64.6676 514.871 64.8467L518.704 72H511.331L507.913 64.5049C507.213 62.9912 506.603 62.0228 506.082 61.5996C505.577 61.1602 504.821 60.9404 503.812 60.9404V72H496.976V46.0723ZM527.122 46.0723H533.714V62.3564L544.261 46.0723H550.999V72H544.407V55.4229L533.714 72H527.122V46.0723ZM559.759 72L569.109 58.6455L560.149 46.0723H568.523L573.113 53.2012L577.947 46.0723H586.004L577.215 58.3525L586.81 72H578.387L573.113 63.9678L567.791 72H559.759ZM623.45 46.0723H646.473V72H639.612V51.6143H630.311V72H623.45V46.0723ZM668.958 63.748L675.794 64.8955C674.915 67.402 673.523 69.3145 671.619 70.6328C669.731 71.9349 667.363 72.5859 664.515 72.5859C660.006 72.5859 656.67 71.113 654.505 68.167C652.796 65.807 651.941 62.8285 651.941 59.2314C651.941 54.9346 653.064 51.5736 655.311 49.1484C657.557 46.707 660.397 45.4863 663.831 45.4863C667.688 45.4863 670.732 46.764 672.962 49.3193C675.192 51.8584 676.258 55.7565 676.16 61.0137H658.973C659.021 63.0482 659.575 64.6351 660.633 65.7744C661.691 66.8975 663.009 67.459 664.588 67.459C665.662 67.459 666.565 67.166 667.298 66.5801C668.03 65.9941 668.584 65.0501 668.958 63.748ZM669.349 56.8145C669.3 54.8288 668.787 53.3232 667.811 52.2979C666.834 51.2562 665.646 50.7354 664.246 50.7354C662.749 50.7354 661.512 51.2806 660.535 52.3711C659.559 53.4616 659.078 54.9427 659.095 56.8145H669.349ZM681.58 46.0723H687.977V49.8809C688.807 48.5788 689.93 47.5208 691.346 46.707C692.762 45.8932 694.332 45.4863 696.058 45.4863C699.069 45.4863 701.624 46.6663 703.724 49.0264C705.823 51.3864 706.873 54.6742 706.873 58.8896C706.873 63.2191 705.815 66.5882 703.699 68.9971C701.583 71.3896 699.02 72.5859 696.009 72.5859C694.576 72.5859 693.274 72.3011 692.103 71.7314C690.947 71.1618 689.726 70.1852 688.44 68.8018V81.8633H681.58V46.0723ZM688.367 58.5967C688.367 61.5101 688.945 63.6667 690.101 65.0664C691.256 66.4499 692.664 67.1416 694.324 67.1416C695.919 67.1416 697.246 66.5068 698.304 65.2373C699.362 63.9515 699.891 61.8519 699.891 58.9385C699.891 56.2204 699.345 54.2021 698.255 52.8838C697.164 51.5654 695.813 50.9062 694.202 50.9062C692.526 50.9062 691.134 51.5573 690.027 52.8594C688.921 54.1452 688.367 56.0576 688.367 58.5967ZM727.356 63.748L734.192 64.8955C733.313 67.402 731.922 69.3145 730.018 70.6328C728.13 71.9349 725.761 72.5859 722.913 72.5859C718.405 72.5859 715.068 71.113 712.903 68.167C711.194 65.807 710.34 62.8285 710.34 59.2314C710.34 54.9346 711.463 51.5736 713.709 49.1484C715.955 46.707 718.795 45.4863 722.229 45.4863C726.087 45.4863 729.131 46.764 731.36 49.3193C733.59 51.8584 734.656 55.7565 734.559 61.0137H717.371C717.42 63.0482 717.973 64.6351 719.031 65.7744C720.089 66.8975 721.408 67.459 722.986 67.459C724.061 67.459 724.964 67.166 725.696 66.5801C726.429 65.9941 726.982 65.0501 727.356 63.748ZM727.747 56.8145C727.698 54.8288 727.186 53.3232 726.209 52.2979C725.232 51.2562 724.044 50.7354 722.645 50.7354C721.147 50.7354 719.91 51.2806 718.934 52.3711C717.957 53.4616 717.477 54.9427 717.493 56.8145H727.747ZM740.247 46.0723H755.262C758.338 46.0723 760.641 46.6338 762.171 47.7568C763.701 48.8799 764.466 50.5726 764.466 52.835C764.466 54.2835 764.043 55.5449 763.196 56.6191C762.366 57.6934 761.316 58.4095 760.047 58.7676C761.837 59.207 763.172 60.029 764.051 61.2334C764.93 62.4378 765.369 63.7562 765.369 65.1885C765.369 67.2067 764.629 68.8506 763.147 70.1201C761.666 71.3734 759.477 72 756.58 72H740.247V46.0723ZM747.156 56.8389H751.575C753.707 56.8389 755.245 56.5703 756.189 56.0332C757.15 55.4961 757.63 54.6497 757.63 53.4941C757.63 52.4036 757.182 51.6305 756.287 51.1748C755.408 50.7028 753.838 50.4668 751.575 50.4668H747.156V56.8389ZM747.156 67.6055H752.576C754.529 67.6055 755.953 67.3695 756.849 66.8975C757.744 66.4255 758.191 65.5791 758.191 64.3584C758.191 63.0889 757.679 62.2181 756.653 61.7461C755.628 61.2578 753.634 61.0137 750.672 61.0137H747.156V67.6055ZM768.665 58.6699C768.665 56.3913 769.227 54.1859 770.35 52.0537C771.473 49.9215 773.06 48.2939 775.11 47.1709C777.177 46.0479 779.48 45.4863 782.02 45.4863C785.942 45.4863 789.157 46.764 791.663 49.3193C794.17 51.8584 795.423 55.0729 795.423 58.9629C795.423 62.8854 794.153 66.1406 791.614 68.7285C789.091 71.3001 785.91 72.5859 782.068 72.5859C779.692 72.5859 777.422 72.0488 775.257 70.9746C773.108 69.9004 771.473 68.3298 770.35 66.2627C769.227 64.1794 768.665 61.6484 768.665 58.6699ZM775.696 59.0361C775.696 61.6077 776.307 63.5771 777.527 64.9443C778.748 66.3115 780.254 66.9951 782.044 66.9951C783.834 66.9951 785.332 66.3115 786.536 64.9443C787.757 63.5771 788.367 61.5915 788.367 58.9873C788.367 56.4482 787.757 54.4951 786.536 53.1279C785.332 51.7607 783.834 51.0771 782.044 51.0771C780.254 51.0771 778.748 51.7607 777.527 53.1279C776.307 54.4951 775.696 56.4645 775.696 59.0361ZM821.57 72H801.941V78.8359H796.375V66.3848H799.183C800.354 65.0827 801.323 63.0482 802.088 60.2812C802.853 57.5143 803.309 52.778 803.455 46.0723H824.378V66.3848H827.161V78.8359H821.57V72ZM817.591 66.3848L817.615 51.7119H809.314C809.038 58.8734 807.898 63.7643 805.896 66.3848H817.591ZM830.286 58.6699C830.286 56.3913 830.848 54.1859 831.971 52.0537C833.094 49.9215 834.681 48.2939 836.731 47.1709C838.799 46.0479 841.102 45.4863 843.641 45.4863C847.563 45.4863 850.778 46.764 853.284 49.3193C855.791 51.8584 857.044 55.0729 857.044 58.9629C857.044 62.8854 855.774 66.1406 853.235 68.7285C850.713 71.3001 847.531 72.5859 843.689 72.5859C841.313 72.5859 839.043 72.0488 836.878 70.9746C834.729 69.9004 833.094 68.3298 831.971 66.2627C830.848 64.1794 830.286 61.6484 830.286 58.6699ZM837.317 59.0361C837.317 61.6077 837.928 63.5771 839.148 64.9443C840.369 66.3115 841.875 66.9951 843.665 66.9951C845.455 66.9951 846.953 66.3115 848.157 64.9443C849.378 63.5771 849.988 61.5915 849.988 58.9873C849.988 56.4482 849.378 54.4951 848.157 53.1279C846.953 51.7607 845.455 51.0771 843.665 51.0771C841.875 51.0771 840.369 51.7607 839.148 53.1279C837.928 54.4951 837.317 56.4645 837.317 59.0361ZM862.513 46.0723H877.527C880.604 46.0723 882.907 46.6338 884.437 47.7568C885.966 48.8799 886.731 50.5726 886.731 52.835C886.731 54.2835 886.308 55.5449 885.462 56.6191C884.632 57.6934 883.582 58.4095 882.312 58.7676C884.103 59.207 885.438 60.029 886.316 61.2334C887.195 62.4378 887.635 63.7562 887.635 65.1885C887.635 67.2067 886.894 68.8506 885.413 70.1201C883.932 71.3734 881.743 72 878.846 72H862.513V46.0723ZM869.422 56.8389H873.841C875.973 56.8389 877.511 56.5703 878.455 56.0332C879.415 55.4961 879.896 54.6497 879.896 53.4941C879.896 52.4036 879.448 51.6305 878.553 51.1748C877.674 50.7028 876.103 50.4668 873.841 50.4668H869.422V56.8389ZM869.422 67.6055H874.842C876.795 67.6055 878.219 67.3695 879.114 66.8975C880.009 66.4255 880.457 65.5791 880.457 64.3584C880.457 63.0889 879.944 62.2181 878.919 61.7461C877.894 61.2578 875.9 61.0137 872.938 61.0137H869.422V67.6055ZM289.377 92.6406H311.572L310.752 96.5547H293.08L286.611 127H282.111L289.377 92.6406ZM303.58 136.539L310.775 102.109H314.689L313.963 105.578C315.416 104.062 316.713 103.016 317.854 102.438C319.01 101.844 320.229 101.547 321.51 101.547C323.885 101.547 325.854 102.414 327.416 104.148C328.979 105.867 329.76 108.336 329.76 111.555C329.76 114.148 329.33 116.516 328.471 118.656C327.611 120.781 326.557 122.492 325.307 123.789C324.057 125.086 322.791 126.039 321.51 126.648C320.229 127.258 318.916 127.562 317.572 127.562C314.588 127.562 312.275 126.047 310.635 123.016L307.822 136.539H303.58ZM311.971 116.828C311.971 118.688 312.104 119.977 312.369 120.695C312.76 121.711 313.4 122.531 314.291 123.156C315.182 123.781 316.213 124.094 317.385 124.094C319.822 124.094 321.791 122.727 323.291 119.992C324.791 117.242 325.541 114.438 325.541 111.578C325.541 109.469 325.033 107.844 324.018 106.703C323.018 105.547 321.768 104.969 320.268 104.969C319.189 104.969 318.189 105.258 317.268 105.836C316.346 106.398 315.486 107.25 314.689 108.391C313.908 109.516 313.26 110.898 312.744 112.539C312.229 114.18 311.971 115.609 311.971 116.828ZM349.377 122.5C346.393 125.875 343.338 127.562 340.213 127.562C338.291 127.562 336.736 127.016 335.549 125.922C334.377 124.812 333.791 123.461 333.791 121.867C333.791 120.82 334.057 119.023 334.588 116.477L337.588 102.109H341.83L338.502 118.023C338.221 119.352 338.08 120.383 338.08 121.117C338.08 122.055 338.361 122.789 338.924 123.32C339.502 123.836 340.346 124.094 341.455 124.094C342.643 124.094 343.799 123.805 344.924 123.227C346.064 122.648 347.041 121.867 347.854 120.883C348.682 119.898 349.354 118.734 349.869 117.391C350.213 116.531 350.611 115.023 351.064 112.867L353.314 102.109H357.557L352.354 127H348.439L349.377 122.5ZM365.783 108.297L361.916 108.016C363.65 103.703 366.846 101.547 371.502 101.547C374.471 101.547 376.721 102.203 378.252 103.516C379.799 104.828 380.572 106.445 380.572 108.367C380.572 109.664 380.213 110.797 379.494 111.766C378.775 112.719 377.838 113.469 376.682 114.016C375.525 114.547 373.682 115.125 371.15 115.75C368.135 116.469 366.119 117.172 365.104 117.859C364.088 118.547 363.58 119.445 363.58 120.555C363.58 121.695 364.158 122.602 365.314 123.273C366.471 123.945 367.846 124.281 369.439 124.281C371.424 124.281 372.885 123.898 373.822 123.133C374.775 122.352 375.596 121.062 376.283 119.266L379.869 119.547C378.369 124.891 374.791 127.562 369.135 127.562C365.838 127.562 363.377 126.906 361.752 125.594C360.143 124.281 359.338 122.68 359.338 120.789C359.338 119.445 359.721 118.211 360.486 117.086C361.252 115.961 362.205 115.109 363.346 114.531C364.486 113.953 366.385 113.359 369.041 112.75C372.494 111.969 374.58 111.203 375.299 110.453C376.002 109.703 376.354 108.961 376.354 108.227C376.354 107.352 375.939 106.586 375.111 105.93C374.283 105.273 373.041 104.945 371.385 104.945C369.822 104.945 368.674 105.195 367.939 105.695C367.221 106.18 366.502 107.047 365.783 108.297ZM382.963 117.555C382.963 112.695 384.393 108.672 387.252 105.484C389.611 102.859 392.705 101.547 396.533 101.547C399.533 101.547 401.947 102.484 403.775 104.359C405.619 106.234 406.541 108.766 406.541 111.953C406.541 114.812 405.963 117.477 404.807 119.945C403.65 122.398 402.002 124.281 399.861 125.594C397.736 126.906 395.494 127.562 393.135 127.562C391.197 127.562 389.432 127.148 387.838 126.32C386.26 125.492 385.049 124.32 384.205 122.805C383.377 121.289 382.963 119.539 382.963 117.555ZM387.205 117.133C387.205 119.477 387.768 121.258 388.893 122.477C390.018 123.68 391.447 124.281 393.182 124.281C394.088 124.281 394.986 124.102 395.877 123.742C396.768 123.367 397.596 122.805 398.361 122.055C399.127 121.305 399.775 120.453 400.307 119.5C400.854 118.531 401.291 117.492 401.619 116.383C402.104 114.836 402.346 113.352 402.346 111.93C402.346 109.68 401.775 107.938 400.635 106.703C399.51 105.453 398.088 104.828 396.369 104.828C395.041 104.828 393.83 105.148 392.736 105.789C391.643 106.414 390.65 107.336 389.76 108.555C388.885 109.773 388.236 111.195 387.814 112.82C387.408 114.43 387.205 115.867 387.205 117.133ZM406.846 136.539L414.041 102.109H417.955L417.229 105.578C418.682 104.062 419.979 103.016 421.119 102.438C422.275 101.844 423.494 101.547 424.775 101.547C427.15 101.547 429.119 102.414 430.682 104.148C432.244 105.867 433.025 108.336 433.025 111.555C433.025 114.148 432.596 116.516 431.736 118.656C430.877 120.781 429.822 122.492 428.572 123.789C427.322 125.086 426.057 126.039 424.775 126.648C423.494 127.258 422.182 127.562 420.838 127.562C417.854 127.562 415.541 126.047 413.9 123.016L411.088 136.539H406.846ZM415.236 116.828C415.236 118.688 415.369 119.977 415.635 120.695C416.025 121.711 416.666 122.531 417.557 123.156C418.447 123.781 419.479 124.094 420.65 124.094C423.088 124.094 425.057 122.727 426.557 119.992C428.057 117.242 428.807 114.438 428.807 111.578C428.807 109.469 428.299 107.844 427.283 106.703C426.283 105.547 425.033 104.969 423.533 104.969C422.455 104.969 421.455 105.258 420.533 105.836C419.611 106.398 418.752 107.25 417.955 108.391C417.174 109.516 416.525 110.898 416.01 112.539C415.494 114.18 415.236 115.609 415.236 116.828ZM452.643 122.5C449.658 125.875 446.604 127.562 443.479 127.562C441.557 127.562 440.002 127.016 438.814 125.922C437.643 124.812 437.057 123.461 437.057 121.867C437.057 120.82 437.322 119.023 437.854 116.477L440.854 102.109H445.096L441.768 118.023C441.486 119.352 441.346 120.383 441.346 121.117C441.346 122.055 441.627 122.789 442.189 123.32C442.768 123.836 443.611 124.094 444.721 124.094C445.908 124.094 447.064 123.805 448.189 123.227C449.33 122.648 450.307 121.867 451.119 120.883C451.947 119.898 452.619 118.734 453.135 117.391C453.479 116.531 453.877 115.023 454.33 112.867L456.58 102.109H460.822L455.619 127H451.705L452.643 122.5ZM486.814 102.109L481.377 127H477.205L479.408 116.641H478.002C476.236 116.641 475.072 116.695 474.51 116.805C473.947 116.914 473.244 117.281 472.4 117.906C471.557 118.531 470.783 119.336 470.08 120.32L465.369 127H460.213L464.947 120.672C466.572 118.484 468.283 117.023 470.08 116.289C468.314 115.82 466.986 115.062 466.096 114.016C465.205 112.953 464.76 111.594 464.76 109.938C464.76 108.516 465.166 107.164 465.979 105.883C466.807 104.586 467.924 103.633 469.33 103.023C470.752 102.414 472.947 102.109 475.916 102.109H486.814ZM481.893 105.461H476.033C472.814 105.461 470.838 105.906 470.104 106.797C469.385 107.672 469.025 108.633 469.025 109.68C469.025 110.586 469.252 111.352 469.705 111.977C470.158 112.586 470.689 112.961 471.299 113.102C471.908 113.242 472.955 113.312 474.439 113.312H480.158L481.893 105.461ZM509.15 92.6406H513.768L510.557 107.781C511.963 107.781 513.111 107.594 514.002 107.219C514.893 106.828 515.83 106.062 516.814 104.922C517.799 103.781 518.814 102.297 519.861 100.469C521.533 97.5156 522.744 95.625 523.494 94.7969C524.26 93.9531 525.182 93.3438 526.26 92.9688C527.338 92.5781 528.4 92.3828 529.447 92.3828C529.588 92.3828 530.486 92.4453 532.143 92.5703L531.346 96.3906C531.189 96.3906 530.9 96.3672 530.479 96.3203C529.838 96.2422 529.408 96.2031 529.189 96.2031C528.377 96.2031 527.658 96.5078 527.033 97.1172C526.393 97.7266 525.588 98.8516 524.619 100.492C522.729 103.711 521.205 105.914 520.049 107.102C518.908 108.273 517.549 109.047 515.971 109.422C518.299 110.312 520.361 112.961 522.158 117.367L526.049 127H521.01L517.752 118.961C516.455 115.773 515.291 113.648 514.26 112.586C513.229 111.508 511.768 110.93 509.877 110.852L506.432 127H501.814L509.15 92.6406ZM530.432 117.555C530.432 112.695 531.861 108.672 534.721 105.484C537.08 102.859 540.174 101.547 544.002 101.547C547.002 101.547 549.416 102.484 551.244 104.359C553.088 106.234 554.01 108.766 554.01 111.953C554.01 114.812 553.432 117.477 552.275 119.945C551.119 122.398 549.471 124.281 547.33 125.594C545.205 126.906 542.963 127.562 540.604 127.562C538.666 127.562 536.9 127.148 535.307 126.32C533.729 125.492 532.518 124.32 531.674 122.805C530.846 121.289 530.432 119.539 530.432 117.555ZM534.674 117.133C534.674 119.477 535.236 121.258 536.361 122.477C537.486 123.68 538.916 124.281 540.65 124.281C541.557 124.281 542.455 124.102 543.346 123.742C544.236 123.367 545.064 122.805 545.83 122.055C546.596 121.305 547.244 120.453 547.775 119.5C548.322 118.531 548.76 117.492 549.088 116.383C549.572 114.836 549.814 113.352 549.814 111.93C549.814 109.68 549.244 107.938 548.104 106.703C546.979 105.453 545.557 104.828 543.838 104.828C542.51 104.828 541.299 105.148 540.205 105.789C539.111 106.414 538.119 107.336 537.229 108.555C536.354 109.773 535.705 111.195 535.283 112.82C534.877 114.43 534.674 115.867 534.674 117.133ZM561.604 102.109H565.799L563.549 112.492H575.104L577.307 102.109H581.455L576.205 127H571.986L574.377 115.867H562.869L560.479 127H556.283L561.604 102.109ZM583.588 117.555C583.588 112.695 585.018 108.672 587.877 105.484C590.236 102.859 593.33 101.547 597.158 101.547C600.158 101.547 602.572 102.484 604.4 104.359C606.244 106.234 607.166 108.766 607.166 111.953C607.166 114.812 606.588 117.477 605.432 119.945C604.275 122.398 602.627 124.281 600.486 125.594C598.361 126.906 596.119 127.562 593.76 127.562C591.822 127.562 590.057 127.148 588.463 126.32C586.885 125.492 585.674 124.32 584.83 122.805C584.002 121.289 583.588 119.539 583.588 117.555ZM587.83 117.133C587.83 119.477 588.393 121.258 589.518 122.477C590.643 123.68 592.072 124.281 593.807 124.281C594.713 124.281 595.611 124.102 596.502 123.742C597.393 123.367 598.221 122.805 598.986 122.055C599.752 121.305 600.4 120.453 600.932 119.5C601.479 118.531 601.916 117.492 602.244 116.383C602.729 114.836 602.971 113.352 602.971 111.93C602.971 109.68 602.4 107.938 601.26 106.703C600.135 105.453 598.713 104.828 596.994 104.828C595.666 104.828 594.455 105.148 593.361 105.789C592.268 106.414 591.275 107.336 590.385 108.555C589.51 109.773 588.861 111.195 588.439 112.82C588.033 114.43 587.83 115.867 587.83 117.133ZM614.76 102.109H634.611L629.361 127H625.143L629.713 105.531H618.205L613.635 127H609.439L614.76 102.109ZM654.275 118.539L658.4 118.961C657.807 121.008 656.439 122.953 654.299 124.797C652.174 126.641 649.635 127.562 646.682 127.562C644.838 127.562 643.143 127.141 641.596 126.297C640.064 125.438 638.893 124.195 638.08 122.57C637.283 120.945 636.885 119.094 636.885 117.016C636.885 114.297 637.51 111.664 638.76 109.117C640.025 106.555 641.658 104.656 643.658 103.422C645.658 102.172 647.822 101.547 650.15 101.547C653.119 101.547 655.486 102.469 657.252 104.312C659.033 106.156 659.924 108.672 659.924 111.859C659.924 113.078 659.814 114.328 659.596 115.609H641.268C641.205 116.094 641.174 116.531 641.174 116.922C641.174 119.25 641.705 121.031 642.768 122.266C643.846 123.484 645.158 124.094 646.705 124.094C648.158 124.094 649.588 123.617 650.994 122.664C652.4 121.711 653.494 120.336 654.275 118.539ZM641.947 112.375H655.916C655.932 111.938 655.939 111.625 655.939 111.438C655.939 109.312 655.408 107.688 654.346 106.562C653.283 105.422 651.916 104.852 650.244 104.852C648.432 104.852 646.775 105.477 645.275 106.727C643.791 107.977 642.682 109.859 641.947 112.375ZM668.127 102.109H686.877L681.58 127H677.361L682.002 105.648H671.549L668.338 120.484C667.791 123.031 667.057 124.812 666.135 125.828C665.213 126.828 663.939 127.328 662.314 127.328C661.377 127.328 660.135 127.219 658.588 127L659.361 123.484C660.018 123.531 660.611 123.555 661.143 123.555C662.221 123.555 662.924 123.289 663.252 122.758C663.596 122.211 664.08 120.562 664.705 117.812L668.127 102.109ZM693.463 102.109H697.705L695.572 111.742H700.096C702.986 111.742 705.049 111.953 706.283 112.375C707.518 112.797 708.486 113.57 709.189 114.695C709.893 115.805 710.244 117.047 710.244 118.422C710.244 120.078 709.76 121.664 708.791 123.18C707.838 124.695 706.658 125.711 705.252 126.227C703.846 126.742 701.658 127 698.689 127H688.096L693.463 102.109ZM692.994 123.625H698.408C700.533 123.625 702.025 123.484 702.885 123.203C703.76 122.922 704.494 122.414 705.088 121.68C705.682 120.93 705.979 120.023 705.979 118.961C705.979 118.023 705.713 117.227 705.182 116.57C704.666 115.914 704.064 115.516 703.377 115.375C702.705 115.219 701.463 115.141 699.65 115.141H694.822L692.994 123.625ZM718.822 102.109H722.971L720.604 112.75L721.354 112.773C722.525 112.773 723.479 112.477 724.213 111.883C724.947 111.273 725.994 109.852 727.354 107.617C728.76 105.32 729.947 103.828 730.916 103.141C731.9 102.453 733.221 102.109 734.877 102.109H736.846L736.072 105.508H735.064C734.018 105.508 733.291 105.648 732.885 105.93C732.494 106.211 731.908 107.023 731.127 108.367C730.064 110.211 729.135 111.531 728.338 112.328C727.541 113.109 726.518 113.727 725.268 114.18C726.314 114.586 727.15 115.172 727.775 115.938C728.416 116.703 729.033 117.867 729.627 119.43L732.533 127H728.15L725.807 120.766C724.932 118.453 724.119 116.969 723.369 116.312C722.619 115.656 721.525 115.328 720.088 115.328L717.557 127H713.361L718.822 102.109ZM736.916 117.555C736.916 112.695 738.346 108.672 741.205 105.484C743.564 102.859 746.658 101.547 750.486 101.547C753.486 101.547 755.9 102.484 757.729 104.359C759.572 106.234 760.494 108.766 760.494 111.953C760.494 114.812 759.916 117.477 758.76 119.945C757.604 122.398 755.955 124.281 753.814 125.594C751.689 126.906 749.447 127.562 747.088 127.562C745.15 127.562 743.385 127.148 741.791 126.32C740.213 125.492 739.002 124.32 738.158 122.805C737.33 121.289 736.916 119.539 736.916 117.555ZM741.158 117.133C741.158 119.477 741.721 121.258 742.846 122.477C743.971 123.68 745.4 124.281 747.135 124.281C748.041 124.281 748.939 124.102 749.83 123.742C750.721 123.367 751.549 122.805 752.314 122.055C753.08 121.305 753.729 120.453 754.26 119.5C754.807 118.531 755.244 117.492 755.572 116.383C756.057 114.836 756.299 113.352 756.299 111.93C756.299 109.68 755.729 107.938 754.588 106.703C753.463 105.453 752.041 104.828 750.322 104.828C748.994 104.828 747.783 105.148 746.689 105.789C745.596 106.414 744.604 107.336 743.713 108.555C742.838 109.773 742.189 111.195 741.768 112.82C741.361 114.43 741.158 115.867 741.158 117.133Z" fill="#002F6C"/>
</svg>
