<svg width="100" height="100" viewBox="0 0 373 393" fill="none" xmlns="http://www.w3.org/2000/svg">
<path d="M198.248 355.905C190.11 354.629 185.825 355.525 179.079 356.877C172.333 358.229 165.728 361.132 157.872 364.634C186.714 372.34 203.796 373.345 232.559 369.184C224.207 364.825 220.56 362.463 206.947 357.686L198.248 355.905Z" fill="#FFA74F" stroke="#FFA74F"/>
<path d="M110.47 344.3L119.79 362.004C96.7897 379.822 82.0785 385.849 53.8253 392.2L63.5978 378.001C47.5044 389.414 37.3833 394.32 10.9348 391.661C16.3995 381.617 19.736 376.136 27.4033 367.306L36.3615 356.702L54.3682 357.151L76.8993 354.725L110.47 344.3Z" fill="#F9E10B" stroke="#F9E10B"/>
<path d="M334.897 175.5H275.128C279.462 190.606 281.298 198.386 282.497 209.856C310.607 206.077 321.096 197.314 334.897 175.5Z" fill="#FFA74F" stroke="black"/>
<path d="M372.103 175.094C351.804 120.148 282.892 116.421 280.198 114.659C277.503 112.898 266.467 149.119 275.142 175.094H372.103Z" fill="#FFA74F" stroke="black"/>
<path d="M171.418 223.968L177.44 213.108L234.894 217.053L279.904 244.401C279.724 250.983 279.493 256.269 279 261.196C278.344 267.763 277.223 273.695 275.139 281.216C273.087 287.771 271.367 293.031 269.476 297.938C267.002 304.358 264.235 310.175 260.047 317.504C252.177 327.096 247.214 332.175 237.277 340.645C227.294 347.97 220.484 351.467 207.358 357.212C200.099 355.15 195.617 354.38 185.383 355.108C177.131 355.808 171.166 357.968 158.641 364.312C146.421 365.833 137.861 365.232 119.986 361.945L156.141 311.743C161.558 306.32 165.642 302.645 169.877 297.938L185.202 266.743L184.111 250.581L179.823 235.46L171.418 223.968Z" fill="white"/>
<path d="M187.927 261.196L169.877 297.938M169.877 297.938C165.642 302.645 161.558 306.32 156.141 311.743L119.986 361.945C137.861 365.232 146.421 365.833 158.641 364.312C171.166 357.968 177.131 355.808 185.383 355.108C195.617 354.38 200.099 355.15 207.358 357.212C220.484 351.467 227.294 347.97 237.277 340.645C247.214 332.175 252.177 327.096 260.047 317.504C264.235 310.175 267.002 304.358 269.476 297.938M169.877 297.938C171.587 296.038 173.322 293.969 175.179 291.55L185.521 271.474L184.111 250.581L179.823 235.46L171.418 223.968L177.44 213.108L234.894 217.053L279.904 244.401C279.724 250.983 279.493 256.269 279 261.196M269.476 297.938C271.367 293.031 273.087 287.771 275.139 281.216C277.223 273.695 278.344 267.763 279 261.196M269.476 297.938L279 261.196" stroke="black"/>
<path d="M269.326 297.743H170.375L155.51 312.621L120.435 361.903C135.014 364.736 143.364 365.193 158.529 364.228C178.618 354.686 189.26 353.151 207.076 357.486C217.28 354.077 222.57 351.572 230.768 345.398L244.24 335.17C259.159 320.724 264.517 312.524 269.326 297.743Z" fill="#D52B1E" stroke="#D52B1E"/>
<path d="M187.379 260.737L169.411 297.743H269.552C274.801 284.298 277.046 276.31 278.995 260.737H187.379Z" fill="#0039A6" stroke="#0039A6"/>
<path d="M173.601 80.2271C204.081 69.5072 217.464 68.2987 244.505 78.0728C260.729 86.2544 269.969 94.9908 280.116 114.595C276.352 112.465 267.344 149.459 274.681 175.178C278.484 188.507 281.019 195.995 282.279 209.614C283.54 223.254 279.896 244.878 279.896 244.878C253.134 250.597 242.274 246.505 235.17 216.629C221.43 245.785 192.266 250.008 177.382 212.803L172.643 224.282C157.888 210.899 126.855 205.89 123.095 209.614C119.334 213.339 119.565 164.217 124.089 142.017C128.669 128.669 132.416 120.729 141.425 105.667C151.128 94.7789 159.084 89.8047 173.601 80.2271Z" fill="#008000" stroke="black"/>
<path d="M250.314 138.068C250.314 160.944 233.687 179.394 213.286 179.394C192.885 179.394 176.257 160.944 176.257 138.068C176.257 115.191 192.885 96.7411 213.286 96.7411C233.687 96.7411 250.314 115.191 250.314 138.068Z" fill="white" stroke="black"/>
<path d="M242.503 136.55C242.503 150.575 232.264 161.854 219.739 161.854C207.214 161.854 196.975 150.575 196.975 136.55C196.975 122.525 207.214 111.245 219.739 111.245C232.264 111.245 242.503 122.525 242.503 136.55Z" fill="black" stroke="black"/>
<path d="M235.711 133.008C235.711 138.511 231.292 142.965 225.852 142.965C220.412 142.965 215.993 138.511 215.993 133.008C215.993 127.505 220.412 123.051 225.852 123.051C231.292 123.051 235.711 127.505 235.711 133.008Z" fill="white" stroke="black"/>
<path d="M122.623 210.065C140.883 206.696 162.944 216.018 172.623 224.501C178.03 232.14 180.441 235.999 183.6 242.099C186.275 249.896 187.096 253.889 187.836 260.611C186.462 271.018 182.338 277.979 175.975 290.06C167.776 301.532 162.43 306.827 152.254 315.303C135.158 329.045 125.104 336.23 104.811 346.436C81.7844 354.584 68.5039 357.343 43.8132 357.374C27.4283 356.063 18.082 354.838 1.03003 351.484C17.0131 332.511 25.9733 321.873 39.5772 300.999L64.6769 254.913C73.0666 238.841 78.6664 233.142 89.4832 226.041C102.135 217.632 109.436 214.465 122.623 210.065Z" fill="white" stroke="#0039A6"/>
<path d="M83.4214 353.088V230.136C101.573 216.266 121.488 206.967 123.217 209.359V336.062C109.491 345.769 100.939 348.489 83.4214 353.088Z" fill="#002F6C" stroke="#002F6C"/>
<path d="M187.908 260.669L62.3651 259.188L42.4248 295.929C42.4248 295.929 160.248 313.913 171.816 295.929C183.384 277.945 188.515 272.959 187.908 260.669Z" fill="#002F6C"/>
<path d="M154.698 313.508L119.8 362.041L110.384 344.287C110.384 344.287 139.262 325.931 154.698 313.508Z" fill="#F9E10B"/>
<path d="M173.319 7.11888C157.547 -18.946 239.253 51.2492 253.111 82.0883C236.824 74.0561 228.166 70.4818 206.778 70.8011C198.396 72.1206 197.036 72.3459 182.797 76.8881H181.886C179.354 77.5826 177.574 78.1932 173.926 79.5846C175.617 65.0191 175.955 53.315 172.977 35.7873C180.301 47.8695 180.861 59.4394 181.886 76.8881H182.797C183.997 56.1955 178.655 42.7151 173.926 19.0838C182.847 25.1982 190.878 40.502 206.498 70.2672L206.778 70.8011C198.268 48.3697 189.09 33.1838 173.319 7.11888Z" fill="#F9E10B"/>
<path d="M206.778 70.8011C228.166 70.4818 236.824 74.0561 253.111 82.0883C239.253 51.2492 157.547 -18.946 173.319 7.11888C189.09 33.1838 198.268 48.3697 206.778 70.8011ZM206.778 70.8011C190.974 40.6849 182.9 25.2347 173.926 19.0838C178.655 42.7151 183.997 56.1955 182.797 76.8881M206.778 70.8011C198.396 72.1206 197.036 72.3459 182.797 76.8881M182.797 76.8881H181.886M181.886 76.8881C180.861 59.4394 180.301 47.8695 172.977 35.7873C175.955 53.315 175.617 65.0191 173.926 79.5846C177.574 78.1932 179.354 77.5826 181.886 76.8881Z" stroke="#F9E10B"/>
</svg>
