<svg width="40" height="40" viewBox="0 0 40 40" fill="none" xmlns="http://www.w3.org/2000/svg">
<path d="M13.7768 11.0625L10.9518 4.68121C10.1933 2.96763 8.5268 1.36241 6.68351 1.70018C6.46666 1.73992 6.23189 1.80113 5.96868 1.89032C4.4472 2.40593 3.33587 3.96182 2.42371 6.08286C-3.26094 19.2545 21.2252 41.0335 31.3622 37.1903C34.3141 36.2988 35.4946 35.4489 36.9054 33.1425C37.2817 32.3455 37.4858 31.6693 37.5532 30.8863C37.6943 29.2471 36.5434 27.8198 35.0781 27.0716L31.6965 25.3448C29.8939 24.4243 27.6918 24.9135 26.4485 26.5105C25.1967 28.1184 22.96 28.6258 21.2029 27.594C17.7229 25.5506 15.1338 23.4201 12.3183 19.6345C11.1023 17.9996 11.1895 15.7802 12.3233 14.0873C13.3985 12.4818 13.9233 11.512 13.7768 11.0625Z" stroke="white" stroke-width="3"/>
</svg>
