<svg width="39" height="34" viewBox="0 0 39 34" fill="none" xmlns="http://www.w3.org/2000/svg">
<path d="M13.8544 10.2082L11.5933 5.83022C10.5492 3.80866 8.44815 1.93008 6.2632 2.56475C4.78398 2.99442 3.70353 4.291 2.8167 6.05853C-2.71004 17.0349 21.0959 35.184 30.9514 31.9814C33.8213 31.2385 34.969 30.5303 36.3405 28.6082C36.3613 28.5705 36.3815 28.5332 36.4012 28.4961C37.5878 26.2619 35.4351 23.9304 33.1176 22.916L31.0954 22.0309C29.3992 21.2885 27.4184 21.7116 26.1736 23.0822C24.9203 24.462 22.9111 24.9005 21.2429 24.069C18.6307 22.7669 16.5366 21.435 14.4733 19.4871C11.9464 17.1015 15.0896 13.4563 13.8544 10.2082Z" fill="white" stroke="#002F6C" stroke-width="3"/>
</svg>
