<svg width="51" height="50" viewBox="0 0 51 50" fill="none" xmlns="http://www.w3.org/2000/svg">
<rect x="0.884941" y="-0.00109863" width="50" height="50" fill="#002F6C"/>
<path d="M20.0831 16.4231L17.2581 10.0418C16.4995 8.32823 14.8331 6.72301 12.9898 7.06078C12.7729 7.10051 12.5382 7.16172 12.275 7.25092C10.7535 7.76653 9.64216 9.32242 8.73 11.4435C3.04535 24.6151 27.5315 46.3941 37.6685 42.5509C40.6204 41.6594 41.8009 40.8095 43.2117 38.5031C43.588 37.7061 43.7921 37.0299 43.8595 36.2469C44.0005 34.6077 42.8497 33.1804 41.3844 32.4322L38.0027 30.7054C36.2002 29.7849 33.9981 30.2741 32.7548 31.8711C31.503 33.479 29.2663 33.9864 27.5092 32.9546C24.0292 30.9112 21.4401 28.7807 18.6245 24.9951C17.4086 23.3602 17.4958 21.1408 18.6296 19.4479C19.7048 17.8424 20.2296 16.8726 20.0831 16.4231Z" fill="white" stroke="white"/>
</svg>
